<svg xmlns="http://www.w3.org/2000/svg" viewBox="0 0 40 40" fill="none">
    <defs>
        <linearGradient id="d1a" x1="100%" y1="100%" x2="0%" y2="0%">
            <stop offset="0%" stop-color="#C8A840"/>
            <stop offset="28%" stop-color="#E8D888"/>
            <stop offset="55%" stop-color="#F8F0C8"/>
            <stop offset="100%" stop-color="#C8A840"/>
        </linearGradient>
        <linearGradient id="d1b" x1="0%" y1="0%" x2="100%" y2="100%">
            <stop offset="0%" stop-color="#C8A840"/>
            <stop offset="100%" stop-color="#806020"/>
        </linearGradient>
        <linearGradient id="d1c" x1="0%" y1="100%" x2="100%" y2="0%">
            <stop offset="0%" stop-color="#A08830"/>
            <stop offset="100%" stop-color="#605010"/>
        </linearGradient>
        <linearGradient id="d2a" x1="0%" y1="100%" x2="100%" y2="0%">
            <stop offset="0%" stop-color="#C0A038"/>
            <stop offset="28%" stop-color="#E0D080"/>
            <stop offset="56%" stop-color="#F8F0C8"/>
            <stop offset="100%" stop-color="#C0A038"/>
        </linearGradient>
        <linearGradient id="d2b" x1="100%" y1="0%" x2="0%" y2="100%">
            <stop offset="0%" stop-color="#D0B858"/>
            <stop offset="100%" stop-color="#806020"/>
        </linearGradient>
        <linearGradient id="d2c" x1="100%" y1="100%" x2="0%" y2="0%">
            <stop offset="0%" stop-color="#A08830"/>
            <stop offset="100%" stop-color="#605010"/>
        </linearGradient>
        <linearGradient id="d3a" x1="0%" y1="0%" x2="100%" y2="100%">
            <stop offset="0%" stop-color="#C8A840"/>
            <stop offset="36%" stop-color="#E8D888"/>
            <stop offset="62%" stop-color="#F8F0C8"/>
            <stop offset="100%" stop-color="#C0A038"/>
        </linearGradient>
        <linearGradient id="d3b" x1="0%" y1="100%" x2="100%" y2="0%">
            <stop offset="0%" stop-color="#C8A840"/>
            <stop offset="100%" stop-color="#806020"/>
        </linearGradient>
        <linearGradient id="d3c" x1="100%" y1="0%" x2="0%" y2="100%">
            <stop offset="0%" stop-color="#A08830"/>
            <stop offset="100%" stop-color="#605010"/>
        </linearGradient>
        <linearGradient id="d4a" x1="100%" y1="0%" x2="0%" y2="100%">
            <stop offset="0%" stop-color="#C0A038"/>
            <stop offset="38%" stop-color="#E0D080"/>
            <stop offset="64%" stop-color="#F8F0C8"/>
            <stop offset="100%" stop-color="#C8A840"/>
        </linearGradient>
        <linearGradient id="d4b" x1="100%" y1="100%" x2="0%" y2="0%">
            <stop offset="0%" stop-color="#D0B858"/>
            <stop offset="100%" stop-color="#806020"/>
        </linearGradient>
        <linearGradient id="d4c" x1="0%" y1="0%" x2="100%" y2="100%">
            <stop offset="0%" stop-color="#A08830"/>
            <stop offset="100%" stop-color="#605010"/>
        </linearGradient>
        <linearGradient id="dHub" x1="50%" y1="100%" x2="50%" y2="0%">
            <stop offset="0%" stop-color="#907828"/>
            <stop offset="50%" stop-color="#C8A840"/>
            <stop offset="100%" stop-color="#E8D888"/>
        </linearGradient>
    </defs>
    <rect width="40" height="40" rx="8" fill="#0a0a1a"/>
    <path d="M24.14 35.45 A16 16 0 0 1 4.97 14.53" stroke="#00e5ff" stroke-width="1.8" stroke-linecap="round"/>
    <path d="M7.75 9.72 A16 16 0 0 1 32.25 9.72" stroke="#00e5ff" stroke-width="1.8" stroke-linecap="round"/>
    <path d="M35.03 14.53 A16 16 0 0 1 29.18 33.10" stroke="#00e5ff" stroke-width="1.8" stroke-linecap="round"/>
    <line x1="11" y1="32" x2="18.5" y2="8" stroke="#00e5ff" stroke-width="2.2" stroke-linecap="round"/>
    <line x1="21.5" y1="8" x2="29" y2="32" stroke="#00e5ff" stroke-width="2.2" stroke-linecap="round"/>
    <line x1="14" y1="23" x2="26" y2="23" stroke="#00e5ff" stroke-width="2" stroke-linecap="round"/>
    <polygon points="4,4 17,18 20,14" fill="url(#d1a)" stroke="#806020" stroke-width="0.3" stroke-linejoin="miter"/>
    <polygon points="4,4 17,18 18.5,16" fill="url(#d1b)" stroke="#806020" stroke-width="0.2" stroke-linejoin="miter"/>
    <polygon points="4,4 20,14 18.5,16" fill="url(#d1c)" stroke="#806020" stroke-width="0.2" stroke-linejoin="miter"/>
    <polygon points="36,4 20,14 23,18" fill="url(#d2a)" stroke="#806020" stroke-width="0.3" stroke-linejoin="miter"/>
    <polygon points="36,4 23,18 21.5,16" fill="url(#d2b)" stroke="#806020" stroke-width="0.2" stroke-linejoin="miter"/>
    <polygon points="36,4 20,14 21.5,16" fill="url(#d2c)" stroke="#806020" stroke-width="0.2" stroke-linejoin="miter"/>
    <polygon points="36,32 23,18 20,20" fill="url(#d3a)" stroke="#806020" stroke-width="0.3" stroke-linejoin="miter"/>
    <polygon points="36,32 23,18 21.5,19" fill="url(#d3b)" stroke="#806020" stroke-width="0.2" stroke-linejoin="miter"/>
    <polygon points="36,32 20,20 21.5,19" fill="url(#d3c)" stroke="#806020" stroke-width="0.2" stroke-linejoin="miter"/>
    <polygon points="4,32 20,20 17,18" fill="url(#d4a)" stroke="#806020" stroke-width="0.3" stroke-linejoin="miter"/>
    <polygon points="4,32 20,20 18.5,19" fill="url(#d4b)" stroke="#806020" stroke-width="0.2" stroke-linejoin="miter"/>
    <polygon points="4,32 17,18 18.5,19" fill="url(#d4c)" stroke="#806020" stroke-width="0.2" stroke-linejoin="miter"/>
    <polygon points="20,14 23,18 20,20 17,18" fill="url(#dHub)" stroke="#806020" stroke-width="0.3" stroke-linejoin="miter"/>
</svg>
